<svg width="58" height="58" viewBox="0 0 58 58" fill="none" xmlns="http://www.w3.org/2000/svg">
<g filter="url(#filter0_d_143_719)">
<rect x="9" y="5" width="40" height="40" rx="8" fill="white"/>
</g>
<path d="M40.186 25.0002C40.186 19.9402 35.2609 15.8335 29.1924 15.8335C23.1239 15.8335 18.1987 19.9402 18.1987 25.0002C18.1987 29.4368 21.9805 33.131 26.9936 33.9835V27.7502H24.7949V25.0002H26.9936V22.7085C26.9936 20.9393 28.7196 19.5002 30.8414 19.5002H33.5898V22.2502H31.3911C30.7865 22.2502 30.2917 22.6627 30.2917 23.1668V25.0002H33.5898V27.7502H30.2917V34.121C35.8435 33.6627 40.186 29.7577 40.186 25.0002Z" fill="#0075FF"/>
<defs>
<filter id="filter0_d_143_719" x="0" y="0" width="58" height="58" filterUnits="userSpaceOnUse" color-interpolation-filters="sRGB">
<feFlood flood-opacity="0" result="BackgroundImageFix"/>
<feColorMatrix in="SourceAlpha" type="matrix" values="0 0 0 0 0 0 0 0 0 0 0 0 0 0 0 0 0 0 127 0" result="hardAlpha"/>
<feOffset dy="4"/>
<feGaussianBlur stdDeviation="4.5"/>
<feComposite in2="hardAlpha" operator="out"/>
<feColorMatrix type="matrix" values="0 0 0 0 0 0 0 0 0 0 0 0 0 0 0 0 0 0 0.25 0"/>
<feBlend mode="normal" in2="BackgroundImageFix" result="effect1_dropShadow_143_719"/>
<feBlend mode="normal" in="SourceGraphic" in2="effect1_dropShadow_143_719" result="shape"/>
</filter>
</defs>
</svg>
