<svg width="58" height="58" viewBox="0 0 58 58" fill="none" xmlns="http://www.w3.org/2000/svg">
<g filter="url(#filter0_d_143_712)">
<rect x="9" y="5" width="40" height="40" rx="8" fill="white"/>
</g>
<path d="M38.8699 23.399C38.8361 23.1906 38.6534 23.0415 38.4423 23.0415H38.0208C38.0093 23.0415 38 23.0322 38 23.0208C38 23.0093 37.9907 23 37.9792 23H31C29.8954 23 29 23.8954 29 25C29 26.1046 29.8954 27 31 27H31.3402C32.9559 27 34.0186 28.6528 32.7627 29.6692C31.7347 30.5013 30.4264 31 29 31C25.6865 31 23 28.3135 23 25C23 21.6865 25.6865 19 29 19C29.8473 19 30.6522 19.1771 31.3819 19.4953C32.3631 19.9232 33.5717 19.9283 34.3286 19.1714C35.1376 18.3624 35.1209 17.0227 34.1415 16.4312C32.6399 15.5243 30.8825 15 29 15C23.4775 15 19 19.4775 19 25C19 30.5225 23.4775 35 29 35C34.5225 35 39 30.5225 39 25C39 24.4549 38.9544 23.9203 38.8699 23.399Z" fill="#FFC107"/>
<path d="M21.0295 18.9673C20.4622 19.7164 20.7134 20.7569 21.4711 21.3127C22.4686 22.0442 23.9014 21.6093 24.7796 20.7382C25.8626 19.6638 27.3527 19 28.9993 19C29.8466 19 30.6516 19.1771 31.3812 19.4953C32.3624 19.9232 33.571 19.9283 34.3279 19.1714C35.137 18.3624 35.1202 17.0227 34.1408 16.4312C32.6393 15.5243 30.8819 15 28.9993 15C25.7438 15 22.8545 16.5579 21.0295 18.9673Z" fill="#FF3D00"/>
<path d="M28.9997 34.9999C30.7281 34.9999 32.3509 34.5572 33.7671 33.7827C34.8743 33.1772 34.8483 31.6796 33.8849 30.8644C33.1393 30.2334 32.0658 30.2444 31.1551 30.5978C30.4868 30.8571 29.7604 30.9999 28.9997 30.9999C27.315 30.9999 25.7949 30.304 24.7069 29.1849C23.8237 28.2763 22.3308 27.8184 21.3271 28.5917C20.6142 29.141 20.3796 30.1332 20.9077 30.8619C22.7235 33.3675 25.6686 34.9999 28.9997 34.9999Z" fill="#000CC9"/>
<path d="M38.8699 23.399C38.8361 23.1906 38.6534 23.0415 38.4423 23.0415H38.0208C38.0093 23.0415 38 23.0322 38 23.0208C38 23.0093 37.9907 23 37.9792 23H31C29.8954 23 29 23.8954 29 25C29 26.1046 29.8954 27 31 27H31.3403C32.956 27 34.0164 28.6512 32.7598 29.6668C32.7098 29.7071 32.6592 29.7467 32.608 29.7855C32.6087 29.7848 32.6101 29.785 32.6109 29.7857L33.9917 30.9541C34.8991 31.722 36.5045 31.7437 37.1876 30.7708C38.0636 29.523 39 27.5809 39 25C39 24.4549 38.9544 23.9203 38.8699 23.399Z" fill="#1976D2"/>
<defs>
<filter id="filter0_d_143_712" x="0" y="0" width="58" height="58" filterUnits="userSpaceOnUse" color-interpolation-filters="sRGB">
<feFlood flood-opacity="0" result="BackgroundImageFix"/>
<feColorMatrix in="SourceAlpha" type="matrix" values="0 0 0 0 0 0 0 0 0 0 0 0 0 0 0 0 0 0 127 0" result="hardAlpha"/>
<feOffset dy="4"/>
<feGaussianBlur stdDeviation="4.5"/>
<feComposite in2="hardAlpha" operator="out"/>
<feColorMatrix type="matrix" values="0 0 0 0 0 0 0 0 0 0 0 0 0 0 0 0 0 0 0.25 0"/>
<feBlend mode="normal" in2="BackgroundImageFix" result="effect1_dropShadow_143_712"/>
<feBlend mode="normal" in="SourceGraphic" in2="effect1_dropShadow_143_712" result="shape"/>
</filter>
</defs>
</svg>
