<svg width="313" height="48" viewBox="0 0 313 48" fill="none" xmlns="http://www.w3.org/2000/svg">
<g clip-path="url(#clip0_99_204)">
<path d="M41.1606 8.45561C38.0534 7.00187 34.7312 5.94534 31.2578 5.34375C30.8312 6.11497 30.3329 7.15228 29.9893 7.97746C26.297 7.42219 22.6387 7.42219 19.0143 7.97746C18.6708 7.15228 18.1611 6.11497 17.7307 5.34375C14.2536 5.94534 10.9275 7.00575 7.82039 8.46331C1.55329 17.9337 -0.145622 27.1689 0.703833 36.2729C4.8605 39.377 8.88882 41.2627 12.8491 42.4966C13.827 41.1508 14.6991 39.7202 15.4504 38.2125C14.0195 37.6689 12.6491 36.9979 11.3541 36.219C11.6977 35.9645 12.0337 35.6984 12.3584 35.4246C20.2564 39.1187 28.8378 39.1187 36.6415 35.4246C36.9699 35.6984 37.3059 35.9645 37.6457 36.219C36.347 37.0017 34.9728 37.6727 33.5419 38.2164C34.2932 39.7202 35.1615 41.1547 36.1431 42.5004C40.1073 41.2665 44.1393 39.3809 48.296 36.2729C49.2927 25.719 46.5933 16.5687 41.1606 8.45561ZM16.5264 30.674C14.1554 30.674 12.2111 28.4607 12.2111 25.7653C12.2111 23.0699 14.1139 20.8527 16.5264 20.8527C18.9388 20.8527 20.8831 23.0661 20.8416 25.7653C20.8453 28.4607 18.9388 30.674 16.5264 30.674ZM32.4735 30.674C30.1026 30.674 28.1582 28.4607 28.1582 25.7653C28.1582 23.0699 30.061 20.8527 32.4735 20.8527C34.8859 20.8527 36.8302 23.0661 36.7887 25.7653C36.7887 28.4607 34.8859 30.674 32.4735 30.674Z" fill="#FAFAFA"/>
</g>
<g clip-path="url(#clip1_99_204)">
<path fill-rule="evenodd" clip-rule="evenodd" d="M112.492 0.015625C105.976 0.015625 105.159 0.043244 102.6 0.160006C100.047 0.276482 98.3026 0.682102 96.7765 1.27524C95.1988 1.88829 93.8608 2.70868 92.5269 4.04248C91.193 5.37638 90.3727 6.71438 89.7596 8.2921C89.1665 9.8182 88.7609 11.5623 88.6444 14.116C88.5276 16.6751 88.5 17.4921 88.5 24.0082C88.5 30.524 88.5276 31.341 88.6444 33.9002C88.7609 36.4538 89.1665 38.198 89.7596 39.724C90.3727 41.3018 91.193 42.6398 92.5269 43.9736C93.8608 45.3074 95.1988 46.1278 96.7765 46.741C98.3026 47.334 100.047 47.7396 102.6 47.8562C105.159 47.9728 105.976 48.0004 112.492 48.0004C119.008 48.0004 119.825 47.9728 122.384 47.8562C124.938 47.7396 126.682 47.334 128.208 46.741C129.786 46.1278 131.124 45.3074 132.458 43.9736C133.792 42.6398 134.612 41.3018 135.225 39.724C135.818 38.198 136.224 36.4538 136.34 33.9002C136.457 31.341 136.485 30.524 136.485 24.0082C136.485 17.4921 136.457 16.6751 136.34 14.116C136.224 11.5623 135.818 9.8182 135.225 8.2921C134.612 6.71438 133.792 5.37638 132.458 4.04248C131.124 2.70868 129.786 1.88829 128.208 1.27524C126.682 0.682102 124.938 0.276482 122.384 0.160006C119.825 0.043244 119.008 0.015625 112.492 0.015625ZM112.492 4.33858C118.899 4.33858 119.658 4.36306 122.187 4.47848C124.527 4.58514 125.797 4.976 126.642 5.30458C127.762 5.73982 128.562 6.25972 129.401 7.09934C130.241 7.93886 130.761 8.7381 131.196 9.858C131.524 10.7034 131.915 11.9738 132.022 14.3131C132.137 16.843 132.162 17.6018 132.162 24.0082C132.162 30.4142 132.137 31.1732 132.022 33.703C131.915 36.0422 131.524 37.3126 131.196 38.1582C130.761 39.278 130.241 40.0772 129.401 40.9168C128.562 41.7564 127.762 42.2762 126.642 42.7116C125.797 43.0402 124.527 43.431 122.187 43.5376C119.658 43.653 118.899 43.6776 112.492 43.6776C106.086 43.6776 105.327 43.653 102.797 43.5376C100.458 43.431 99.1878 43.0402 98.3424 42.7116C97.2225 42.2762 96.4232 41.7564 95.5837 40.9168C94.7442 40.0772 94.2242 39.278 93.789 38.1582C93.4604 37.3126 93.0695 36.0422 92.9629 33.703C92.8474 31.1732 92.823 30.4142 92.823 24.0082C92.823 17.6018 92.8474 16.843 92.9629 14.3131C93.0695 11.9738 93.4604 10.7034 93.789 9.858C94.2242 8.7381 94.7441 7.93886 95.5837 7.09934C96.4232 6.25972 97.2225 5.73982 98.3424 5.30458C99.1878 4.976 100.458 4.58514 102.797 4.47848C105.327 4.36306 106.086 4.33858 112.492 4.33858ZM112.492 32.0056C108.076 32.0056 104.495 28.425 104.495 24.0082C104.495 19.5912 108.076 16.0106 112.492 16.0106C116.909 16.0106 120.49 19.5912 120.49 24.0082C120.49 28.425 116.909 32.0056 112.492 32.0056ZM112.492 11.6876C105.688 11.6876 100.172 17.2036 100.172 24.0082C100.172 30.8124 105.688 36.3284 112.492 36.3284C119.297 36.3284 124.813 30.8124 124.813 24.0082C124.813 17.2036 119.297 11.6876 112.492 11.6876ZM125.3 14.0799C126.89 14.0799 128.179 12.791 128.179 11.2009C128.179 9.61076 126.89 8.32172 125.3 8.32172C123.71 8.32172 122.421 9.61076 122.421 11.2009C122.421 12.791 123.71 14.0799 125.3 14.0799Z" fill="#FAFAFA"/>
</g>
<path d="M200.5 45C212.098 45 221.5 35.598 221.5 24C221.5 12.402 212.098 3 200.5 3C188.902 3 179.5 12.402 179.5 24C179.5 35.598 188.902 45 200.5 45Z" fill="#FAFAFA"/>
<path d="M208.321 30.4224L209.253 24.4951H203.418V20.6505C203.418 19.0286 204.232 17.4466 206.845 17.4466H209.5V12.4005C209.5 12.4005 207.092 12 204.79 12C199.982 12 196.843 14.8394 196.843 19.9776V24.4951H191.5V30.4224H196.843V44.7517C197.915 44.916 199.012 45 200.13 45C201.248 45 202.345 44.916 203.418 44.7517V30.4224H208.321Z" fill="#050402"/>
<g clip-path="url(#clip2_99_204)">
<path fill-rule="evenodd" clip-rule="evenodd" d="M279.596 43.1995C297.709 43.1995 307.616 28.424 307.616 15.6124C307.616 15.1918 307.616 14.7744 307.587 14.3585C309.514 12.988 311.178 11.2864 312.5 9.33934C310.705 10.1238 308.797 10.6383 306.846 10.8651C308.9 9.65295 310.438 7.74857 311.175 5.50145C309.241 6.63091 307.126 7.42804 304.921 7.85575C301.191 3.95222 294.954 3.76309 290.986 7.43504C288.43 9.80267 287.343 13.3328 288.138 16.6999C280.22 16.3077 272.842 12.6263 267.841 6.5702C265.227 11.0006 266.564 16.6663 270.891 19.5112C269.324 19.4663 267.79 19.0509 266.42 18.2995V18.4225C266.422 23.0373 269.727 27.0109 274.321 27.9253C272.871 28.3152 271.35 28.3717 269.876 28.0905C271.165 32.0413 274.863 34.7473 279.075 34.8253C275.588 37.5237 271.28 38.989 266.845 38.9843C266.062 38.9819 265.28 38.9369 264.5 38.8448C269.005 41.6897 274.244 43.1995 279.596 43.1925" fill="#FAFAFA"/>
</g>
<defs>
<clipPath id="clip0_99_204">
<rect width="48" height="48" fill="white" transform="translate(0.5)"/>
</clipPath>
<clipPath id="clip1_99_204">
<rect width="48" height="48" fill="white" transform="translate(88.5)"/>
</clipPath>
<clipPath id="clip2_99_204">
<rect x="264.5" width="48" height="48" fill="white"/>
</clipPath>
</defs>
</svg>
