<svg width="58" height="58" viewBox="0 0 58 58" fill="none" xmlns="http://www.w3.org/2000/svg">
<g filter="url(#filter0_d_143_722)">
<rect x="9" y="5" width="40" height="40" rx="8" fill="white"/>
</g>
<g clip-path="url(#clip0_143_722)">
<rect width="20" height="20" transform="translate(19 15)" fill="white"/>
<path d="M38.1667 17.5001C37.3687 18.063 36.4851 18.4935 35.55 18.7751C35.0482 18.198 34.3812 17.789 33.6392 17.6034C32.8973 17.4177 32.1163 17.4644 31.4018 17.7371C30.6873 18.0098 30.0737 18.4954 29.6442 19.1282C29.2146 19.7609 28.9898 20.5104 29 21.2751V22.1084C27.5356 22.1464 26.0844 21.8216 24.7759 21.163C23.4673 20.5043 22.342 19.5323 21.5 18.3334C21.5 18.3334 18.1667 25.8334 25.6667 29.1667C23.9505 30.3317 21.906 30.9159 19.8334 30.8334C27.3334 35.0001 36.5 30.8334 36.5 21.2501C36.4993 21.018 36.477 20.7864 36.4334 20.5584C37.2839 19.7197 37.8841 18.6607 38.1667 17.5001Z" fill="#0075FF" stroke="#0075FF" stroke-width="2" stroke-linecap="round" stroke-linejoin="round"/>
</g>
<defs>
<filter id="filter0_d_143_722" x="0" y="0" width="58" height="58" filterUnits="userSpaceOnUse" color-interpolation-filters="sRGB">
<feFlood flood-opacity="0" result="BackgroundImageFix"/>
<feColorMatrix in="SourceAlpha" type="matrix" values="0 0 0 0 0 0 0 0 0 0 0 0 0 0 0 0 0 0 127 0" result="hardAlpha"/>
<feOffset dy="4"/>
<feGaussianBlur stdDeviation="4.5"/>
<feComposite in2="hardAlpha" operator="out"/>
<feColorMatrix type="matrix" values="0 0 0 0 0 0 0 0 0 0 0 0 0 0 0 0 0 0 0.25 0"/>
<feBlend mode="normal" in2="BackgroundImageFix" result="effect1_dropShadow_143_722"/>
<feBlend mode="normal" in="SourceGraphic" in2="effect1_dropShadow_143_722" result="shape"/>
</filter>
<clipPath id="clip0_143_722">
<rect width="20" height="20" fill="white" transform="translate(19 15)"/>
</clipPath>
</defs>
</svg>
